<svg xmlns="http://www.w3.org/2000/svg" viewBox="0 0 770 507">
<path fill="#FFFFFF" d="M308.4,292c-0.3-0.7-1-1-1.6-0.7l-0.4,0.2c-2.5-3.5-7.1-5-11.2-3.3c-4.1,1.7-6.4,5.9-5.9,10.2l-15.4,6.2
c-0.1,0-0.2,0.1-0.2,0.1l-22.4,9c-1.6,0.6-2.4,2.5-1.7,4.1l0.6,1.6c-1.6,0.5-3,1.8-4.2,3.7c-4.3,1.1-4.9-3.2-7.6-2.1
c-1.6,0.6-3.2,5.2,0.6,9.5c1.7,1.9,3.6,2.9,5.4,3.3c0.5,1.8,1.5,3.3,2.9,4c-0.4,0.5-0.7,0.9-1.1,1.4c-19.6,15.5-16.3,43.5-5.3,48.9
c10.9,5.4,30.7-5.5,32-10.6c1.1-4.3-0.1-8-1.8-11.5c3.2,0.5,6.7-0.2,10.3-1.6c8.7-3.5,14.6-9.6,9.8-22c-0.2-0.5-0.4-1-0.6-1.4
l3.3-1.3c1.6-0.6,2.4-2.5,1.7-4.1l-1.7-4.4l24.7-9.9c0.6-0.3,1-1,0.7-1.7L308.4,292z M280.3,357.3c-2.9,1.2-5.9,1-8.4-0.8
c0.7,0.2,1.6,0.4,2.5,0.3c4.4-0.1,6.1-3.5,5.6-4.8c-1-2.4-4.1,0.3-5.8-4.5l10.4-4.2c0.2,0.3,0.3,0.6,0.4,0.9
C287.7,351.4,284.9,355.4,280.3,357.3z"/>
<path fill="#FFFFFF" d="M752.7,407.8c-0.6-0.2-1.3-0.4-1.9-0.6c-0.3-0.1-0.6-0.1-1-0.2c-0.4-0.1-0.8-0.1-1.2-0.1c-0.3,0-0.5,0-0.8,0
c-0.5,0-0.9,0-1.4,0c-0.2,0-0.5,0-0.7,0.1c-1,0.1-1.9,0.3-2.9,0.6c-0.4,0.1-0.7,0.2-1,0.4l0,0l0-0.1c0.2-0.6,0.2-1.3,0-1.8
c-0.3-0.8-0.9-1.5-1.7-1.8l-0.7-0.3c1.1-1.4,3-4.2,3.6-5.9c0.6-1.8-0.3-3.8-2.1-4.4l-8.3-3l-12.4-4.5c-1.8-0.6-3.8,0.3-4.4,2.1
c-0.6,1.8-0.9,5.1-1,6.9l-0.5-0.2c0,0,0,0,0,0l-0.3-0.1c-1.5-0.5-3.1,0.2-3.6,1.7l0,0l0,0l-1.4,4.2c-13.1-1.5-18.3,3.9-20.8,10.8
c0,0.1-9.3,25.7-9.3,25.7c0,0,0,0,0,0c0,0.1-0.1,0.2-0.1,0.2c0,0.1-0.1,0.3-0.1,0.4c-0.1,0.2-0.1,0.4-0.2,0.6c0,0,0,0,0,0.1
c-1.4,5.6,0.8,11.4,5.3,14.6c0,0,0,0,0,0c0.2,0.1,0.3,0.2,0.5,0.4c0,0,0.1,0,0.1,0.1c0.2,0.1,0.3,0.2,0.5,0.3c0,0,0.1,0.1,0.1,0.1
c0.2,0.1,0.3,0.2,0.5,0.3c0.1,0,0.1,0.1,0.2,0.1c0.2,0.1,0.3,0.2,0.5,0.2c0.1,0,0.1,0.1,0.2,0.1c0.2,0.1,0.4,0.2,0.7,0.3l18,6.6
l13.3,4.8l4.7,1.7c1.3,0.5,2.7,0.7,4,0.8c1.3,0.1,2.7-0.1,4-0.4c3.3-0.8,6.3-2.9,8.2-5.9c0.2-0.3,0.3-0.5,0.5-0.8
c0.3-0.6,0.6-1.2,0.9-1.9c0,0,0.5-1.3,1.2-3.4c2.4-6.6,7.6-21,8.1-22.2c5-0.4,9.4-3.2,11.5-7.7c0.1-0.3,0.3-0.6,0.4-0.9
C764.2,418.4,760.2,410.5,752.7,407.8z M754.7,420.8c0,0.5-0.1,1.1-0.3,1.6c-0.6,1.5-1.7,2.7-3.1,3.4c-0.9-3.7-3-7.5-7-11.2
c1-0.6,2.3-0.9,3.6-0.9c0.3,0,0.6,0,0.9,0.1c0.5,0.1,1,0.2,1.4,0.4c2.9,1,4.7,3.7,4.6,6.4C754.7,420.6,754.7,420.7,754.7,420.8z"/>
<path fill="#FFFFFF" d="M348.1,196.4c10.9,5.4,30.7-5.5,32-10.6c1.1-4.3-0.1-8-1.8-11.5c3.2,0.5,6.7-0.1,10.3-1.6
c8.7-3.5,14.6-9.6,9.8-22c-0.2-0.5-0.4-1-0.6-1.4l3.3-1.3c1.6-0.6,2.4-2.5,1.7-4.1l-1.7-4.4l24.7-9.9c0.6-0.3,1-1,0.7-1.7
l-10.7-27.5c-0.3-0.7-1-1-1.6-0.7l-0.4,0.2c-2.5-3.5-7.1-5-11.2-3.3c-4.1,1.6-6.4,5.9-5.9,10.2l-15.4,6.2c-0.1,0-0.2,0.1-0.2,0.1
l-22.4,9c-1.6,0.6-2.4,2.5-1.7,4.1l0.6,1.6c-1.6,0.5-3,1.8-4.2,3.7c-4.3,1.1-4.9-3.2-7.6-2.1c-1.6,0.6-3.2,5.2,0.6,9.5
c1.7,1.9,3.6,2.9,5.4,3.3c0.5,1.8,1.5,3.3,2.8,4c-0.4,0.5-0.7,0.9-1.1,1.4C333.8,163,337.2,191,348.1,196.4z M381.6,165.3
c4.4-0.1,6.1-3.5,5.6-4.8c-1-2.4-4.1,0.3-5.8-4.5l10.3-4.2c0.2,0.3,0.3,0.6,0.4,0.9c2.8,7.1,0,11.1-4.7,13c-2.9,1.2-5.9,1-8.4-0.8
C379.9,165.2,380.7,165.3,381.6,165.3z"/>
<path fill="#FFFFFF" d="M733.9,6.3l-15.4,6.2c-0.1,0-0.2,0.1-0.2,0.1l-22.4,9c-1.6,0.6-2.4,2.5-1.7,4.1l0.6,1.6
c-1.6,0.5-3,1.8-4.2,3.7c-4.3,1.1-4.9-3.2-7.6-2.1c-1.6,0.6-3.2,5.2,0.6,9.5c1.7,1.9,3.6,2.9,5.4,3.3c0.5,1.8,1.5,3.3,2.9,4
c-0.4,0.5-0.7,0.9-1.1,1.4c-19.6,15.5-16.3,43.5-5.3,48.9c10.9,5.4,30.7-5.5,32-10.6c1.1-4.3-0.1-8-1.8-11.5
c3.2,0.5,6.7-0.1,10.3-1.6c8.7-3.5,14.6-9.6,9.8-22c-0.2-0.5-0.4-1-0.6-1.4l3.3-1.3c1.6-0.6,2.4-2.5,1.7-4.1l-1.7-4.4l24.7-9.9
c0.6-0.3,1-1,0.7-1.7L753,0h-17.8C734.1,1.8,733.6,4.1,733.9,6.3z M724.8,65.2c-2.9,1.2-5.9,1-8.4-0.8c0.7,0.2,1.6,0.4,2.5,0.3
c4.4-0.1,6.1-3.5,5.6-4.8c-1-2.4-4.1,0.3-5.8-4.5l10.3-4.2c0.2,0.3,0.3,0.6,0.4,0.9C732.3,59.4,729.5,63.4,724.8,65.2z"/>
<path fill="#FFFFFF" d="M345.9,289.2l22.4,22.4c1.7,1.7,4.4,1.7,6.1,0l3.2-3.2c11.8,4.3,24.2,2.7,33.2-6.3
c13.7-13.7,14.3-39.1-1.1-54.4c-15.3-15.3-40.7-14.7-54.4-1.1c-9,9-10.6,21.4-6.3,33.2l-3.2,3.2
C344.2,284.7,344.2,287.5,345.9,289.2z M388.2,273.6l7.1,0c1.5,0,2.7,1.2,2.7,2.7c0,1.5-1.2,2.7-2.7,2.7l-7.1,0
c-0.8,0-1.4-0.3-1.9-0.8c-0.5-0.5-0.8-1.2-0.8-1.9C385.4,274.8,386.7,273.6,388.2,273.6z M378.8,262.5c0-1.5,1.2-2.7,2.7-2.7
c1.5,0,2.7,1.2,2.7,2.7l0,7.1c0,1.5-1.2,2.7-2.7,2.7c-0.8,0-1.4-0.3-1.9-0.8c-0.5-0.5-0.8-1.2-0.8-1.9L378.8,262.5z M382.2,284.9
c4.6-4.6,12-4.8,16.4-0.3c4.5,4.5,4.3,11.8-0.3,16.4s-12,4.8-16.4,0.3C377.4,296.9,377.6,289.5,382.2,284.9z M371.8,294.1
c0,0-8.4-8.3-8.3-8.3c0,0,11.3-2.6,11.3-2.6L371.8,294.1z M357.1,259.8c4.6-4.6,12-4.8,16.4-0.3c4.5,4.5,4.3,11.8-0.3,16.4
s-12,4.8-16.4,0.3C352.3,271.8,352.5,264.4,357.1,259.8z"/>
<path fill="#FFFFFF" d="M488.8,292.5c-1.5-0.5-3.1,0.2-3.6,1.7l0,0l0,0l-1.4,4.2c-13.1-1.5-18.3,3.9-20.8,10.8
c0,0.1-9.3,25.7-9.3,25.7l0,0c0,0.1-0.1,0.2-0.1,0.2c0,0.1-0.1,0.3-0.1,0.4c-0.1,0.2-0.1,0.4-0.2,0.6c0,0,0,0,0,0.1
c-1.4,5.6,0.8,11.4,5.3,14.6c0,0,0,0,0,0c0.2,0.1,0.3,0.2,0.5,0.4c0,0,0.1,0,0.1,0.1c0.2,0.1,0.3,0.2,0.5,0.3c0,0,0.1,0.1,0.1,0.1
c0.2,0.1,0.3,0.2,0.5,0.3c0.1,0,0.1,0.1,0.2,0.1c0.2,0.1,0.3,0.2,0.5,0.2c0.1,0,0.1,0.1,0.2,0.1c0.2,0.1,0.4,0.2,0.7,0.3l18,6.5
l13.3,4.8l4.7,1.7c1.3,0.5,2.7,0.7,4,0.8s2.7-0.1,4-0.4c3.3-0.8,6.3-2.9,8.2-5.9c0.2-0.3,0.3-0.5,0.5-0.8c0.3-0.6,0.6-1.2,0.9-1.9
c0,0,0.5-1.3,1.2-3.4c2.4-6.6,7.6-21,8.1-22.2c5-0.4,9.4-3.2,11.5-7.7c0.1-0.3,0.3-0.6,0.4-0.9c2.5-7-1.5-14.9-8.9-17.6
c-0.6-0.2-1.3-0.4-1.9-0.6c-0.3-0.1-0.6-0.1-1-0.2c-0.4-0.1-0.8-0.1-1.2-0.1c-0.3,0-0.5,0-0.8,0c-0.5,0-0.9,0-1.4,0
c-0.2,0-0.5,0-0.7,0.1c-1,0.1-1.9,0.3-2.9,0.6c-0.4,0.1-0.7,0.2-1,0.4l0,0l0-0.1c0.2-0.6,0.2-1.3,0-1.8c-0.3-0.8-0.9-1.5-1.7-1.8
l-0.7-0.3c1.1-1.4,3-4.2,3.6-5.9c0.6-1.8-0.3-3.8-2.1-4.4l-8.3-3l-12.4-4.5c-1.8-0.6-3.8,0.3-4.4,2.1c-0.6,1.8-0.9,5.1-1,6.9
l-0.5-0.2c0,0,0,0,0,0L488.8,292.5z M522.7,311.5c0.3,0,0.6,0,0.9,0.1c0.5,0.1,1,0.2,1.4,0.4c2.9,1,4.7,3.7,4.6,6.4
c0,0.1,0,0.2,0,0.3c0,0.5-0.1,1.1-0.3,1.6c-0.6,1.5-1.7,2.7-3.1,3.4c-0.9-3.7-3-7.5-7-11.2C520.1,311.8,521.4,311.5,522.7,311.5z"/>
<path fill="#FFFFFF" d="M269.4,175.1c-1.5-0.5-3.1,0.2-3.6,1.7l0,0v0l-1.4,4.2c-13.1-1.5-18.3,3.9-20.8,10.8
c0,0.1-9.3,25.7-9.3,25.7v0c0,0,0,0,0,0c0,0.1-0.1,0.2-0.1,0.2c0,0.1-0.1,0.3-0.1,0.4c-0.1,0.2-0.1,0.4-0.2,0.6c0,0,0,0,0,0.1
c-1.4,5.6,0.8,11.4,5.3,14.6c0,0,0,0,0,0c0.2,0.1,0.3,0.2,0.5,0.4c0,0,0.1,0,0.1,0.1c0.2,0.1,0.3,0.2,0.5,0.3c0,0,0.1,0,0.1,0.1
c0.2,0.1,0.3,0.2,0.5,0.3c0.1,0,0.1,0.1,0.2,0.1c0.2,0.1,0.3,0.2,0.5,0.2c0.1,0,0.1,0.1,0.2,0.1c0.2,0.1,0.4,0.2,0.7,0.3l18,6.6
l13.3,4.8l4.7,1.7c1.3,0.5,2.7,0.7,4,0.8c1.3,0.1,2.7-0.1,4-0.4c3.3-0.8,6.3-2.9,8.2-5.9c0.2-0.3,0.3-0.5,0.5-0.8
c0.3-0.6,0.6-1.2,0.9-1.9c0,0,0.5-1.3,1.2-3.4c2.4-6.6,7.6-21,8.1-22.2c5-0.4,9.4-3.2,11.5-7.7c0.1-0.3,0.3-0.6,0.4-0.9
c2.5-7-1.5-14.9-8.9-17.6c-0.6-0.2-1.3-0.4-1.9-0.6c-0.3-0.1-0.6-0.1-1-0.2c-0.4-0.1-0.8-0.1-1.2-0.1c-0.3,0-0.5,0-0.8,0
c-0.5,0-0.9,0-1.4,0c-0.2,0-0.5,0-0.7,0.1c-1,0.1-1.9,0.3-2.9,0.6c-0.4,0.1-0.7,0.2-1,0.4l0,0l0-0.1c0.2-0.6,0.2-1.3,0-1.8
c-0.3-0.8-0.9-1.5-1.7-1.8l-0.7-0.3c1.1-1.4,3-4.2,3.6-5.9c0.6-1.8-0.3-3.8-2.1-4.4l-8.3-3l-12.4-4.5c-1.8-0.6-3.8,0.3-4.4,2.1
c-0.6,1.8-0.9,5.1-1,6.9l-0.5-0.2c0,0,0,0,0,0L269.4,175.1z M303.3,194.1c0.3,0,0.6,0,0.9,0.1c0.5,0.1,1,0.2,1.4,0.4
c2.9,1,4.7,3.7,4.6,6.4c0,0.1,0,0.2,0,0.3c0,0.5-0.1,1.1-0.3,1.6c-0.6,1.5-1.7,2.7-3.1,3.4c-0.9-3.7-3-7.5-7-11.2
C300.8,194.4,302,194.1,303.3,194.1z"/>
<path fill="#FFFFFF" d="M178.1,6.3l-15.4,6.2c-0.1,0-0.2,0.1-0.2,0.1l-22.4,9c-1.6,0.6-2.4,2.5-1.7,4.1l0.6,1.6
c-1.6,0.5-3,1.8-4.2,3.7c-4.3,1.1-4.9-3.2-7.6-2.1c-1.6,0.6-3.2,5.2,0.6,9.5c1.7,1.9,3.6,2.9,5.4,3.3c0.5,1.8,1.5,3.3,2.8,4
c-0.4,0.5-0.7,0.9-1.1,1.4c-19.6,15.5-16.3,43.5-5.3,48.9c10.9,5.4,30.7-5.5,32-10.6c1.1-4.3-0.1-8-1.8-11.5
c3.2,0.5,6.7-0.1,10.3-1.6c8.7-3.5,14.6-9.6,9.8-22c-0.2-0.5-0.4-1-0.6-1.4l3.3-1.3c1.6-0.6,2.4-2.5,1.7-4.1l-1.7-4.4l24.7-9.9
c0.6-0.3,1-1,0.7-1.7L197.2,0h-17.8C178.3,1.8,177.8,4.1,178.1,6.3z M169,65.2c-2.9,1.2-5.9,1-8.4-0.8c0.7,0.2,1.6,0.4,2.5,0.3
c4.4-0.1,6.1-3.5,5.6-4.8c-1-2.4-4.1,0.3-5.8-4.5l10.3-4.2c0.2,0.3,0.3,0.6,0.4,0.9C176.5,59.4,173.7,63.4,169,65.2z"/>
<path fill="#FFFFFF" d="M752.7,290.4l0.4-21.5c0-0.7-0.3-1.5-0.8-2l0,0c-0.5-0.5-1.3-0.8-2-0.8l-21.5,0.5l-18.4-11.2
c-0.6-0.4-1.4-0.5-2.1-0.3s-1.3,0.7-1.7,1.3l-10.3,18.9l-18.8,10.3c-0.7,0.4-1.1,1-1.3,1.7c-0.2,0.7-0.1,1.5,0.3,2.1l11.2,18.4
l-0.4,21.5c0,0.7,0.3,1.5,0.8,2l0,0c0.5,0.5,1.3,0.8,2,0.8l21.5-0.5l18.4,11.2c0.6,0.4,1.4,0.5,2.1,0.3c0.7-0.2,1.3-0.7,1.7-1.3
l10.3-18.9l18.8-10.3c0.7-0.4,1.1-1,1.3-1.7c0.2-0.7,0.1-1.5-0.3-2.1L752.7,290.4z"/>
<path fill="#FFFFFF" d="M308.1,70.8l0.4-21.5c0-0.7-0.3-1.5-0.8-2l0,0c-0.5-0.5-1.3-0.8-2-0.8L284.2,47l-18.4-11.2
c-0.6-0.4-1.4-0.5-2.1-0.3c-0.7,0.2-1.3,0.7-1.7,1.3l-10.3,18.9l-18.8,10.3c-0.7,0.4-1.1,1-1.3,1.7c-0.2,0.7-0.1,1.5,0.3,2.1
l11.2,18.4l-0.4,21.5c0,0.7,0.3,1.5,0.8,2l0,0c0.5,0.5,1.3,0.8,2,0.8l21.5-0.5l18.4,11.2c0.6,0.4,1.4,0.5,2.1,0.3
c0.7-0.2,1.3-0.7,1.7-1.3l10.3-18.9L318.3,93c0.7-0.4,1.1-1,1.3-1.7c0.2-0.7,0.1-1.5-0.3-2.1L308.1,70.8z"/>
<path fill="#FFFFFF" d="M582.2,340.1c-9,9-10.6,21.4-6.3,33.2l-3.2,3.2c-1.7,1.7-1.7,4.4,0,6.1l22.4,22.4c1.7,1.7,4.4,1.7,6.1,0
l3.2-3.2c11.8,4.3,24.2,2.7,33.2-6.3c13.7-13.7,14.3-39.1-1.1-54.4C621.3,325.8,595.9,326.4,582.2,340.1z M598.6,387.5
c0,0-8.4-8.3-8.3-8.3c0,0,11.3-2.6,11.3-2.6L598.6,387.5z M600,369.3c-4.6,4.6-12,4.8-16.4,0.3c-4.5-4.5-4.3-11.8,0.3-16.4
s12-4.8,16.4-0.3C604.8,357.4,604.7,364.7,600,369.3z M615,367l7.1,0c1.5,0,2.7,1.2,2.7,2.7c0,1.5-1.2,2.7-2.7,2.7l-7.1,0
c-0.8,0-1.4-0.3-1.9-0.8c-0.5-0.5-0.8-1.2-0.8-1.9C612.2,368.2,613.5,367,615,367z M605.6,355.9c0-1.5,1.2-2.7,2.7-2.7
c1.5,0,2.7,1.2,2.7,2.7l0,7.1c0,1.5-1.2,2.7-2.7,2.7c-0.8,0-1.4-0.3-1.9-0.8c-0.5-0.5-0.8-1.2-0.8-1.9L605.6,355.9z M625.2,394.5
c-4.6,4.6-12,4.8-16.4,0.3c-4.5-4.5-4.3-11.8,0.3-16.4s12-4.8,16.4-0.3C629.9,382.5,629.8,389.8,625.2,394.5z"/>
<path fill="#FFFFFF" d="M751.3,506.2l-0.4,0.2c-2.5-3.5-7.1-5-11.2-3.3c-2,0.8-3.5,2.2-4.6,3.9H753l0,0
C752.7,506.3,752,505.9,751.3,506.2z"/>
<path fill="#FFFFFF" d="M705.6,206.4c1.7,1.7,4.4,1.7,6.1,0l3.2-3.2c11.8,4.3,24.2,2.7,33.2-6.3c13.7-13.7,14.3-39.1-1.1-54.4
c-15.3-15.3-40.7-14.7-54.4-1.1c-9,9-10.6,21.4-6.3,33.2l-3.2,3.2c-1.7,1.7-1.7,4.4,0,6.1L705.6,206.4z M725.4,168.4l7.1,0
c1.5,0,2.7,1.2,2.7,2.7c0,1.5-1.2,2.7-2.7,2.7l-7.1,0c-0.8,0-1.4-0.3-1.9-0.8c-0.5-0.5-0.8-1.2-0.8-1.9
C722.7,169.6,723.9,168.4,725.4,168.4z M716,157.3c0-1.5,1.2-2.7,2.7-2.7c1.5,0,2.7,1.2,2.7,2.7l0,7.1c0,1.5-1.2,2.7-2.7,2.7
c-0.8,0-1.4-0.3-1.9-0.8c-0.5-0.5-0.8-1.2-0.8-1.9L716,157.3z M719.5,179.7c4.6-4.6,12-4.8,16.4-0.3c4.5,4.5,4.3,11.8-0.3,16.4
c-4.6,4.6-12,4.8-16.4,0.3S714.8,184.3,719.5,179.7z M709,188.9c0,0-8.4-8.3-8.3-8.3c0,0,11.3-2.6,11.3-2.6L709,188.9z M694.4,154.6
c4.6-4.6,12-4.8,16.4-0.3s4.3,11.8-0.3,16.4s-12,4.8-16.4,0.3C689.6,166.6,689.7,159.2,694.4,154.6z"/>
<path fill="#FFFFFF" d="M573.2,140C573.3,140,573.3,140,573.2,140c0.2,0.1,0.4,0.3,0.6,0.4c0,0,0.1,0,0.1,0.1
c0.2,0.1,0.3,0.2,0.5,0.3c0,0,0.1,0,0.1,0.1c0.2,0.1,0.3,0.2,0.5,0.3c0.1,0,0.1,0.1,0.2,0.1c0.2,0.1,0.3,0.2,0.5,0.2
c0.1,0,0.1,0.1,0.2,0.1c0.2,0.1,0.4,0.2,0.7,0.3l18,6.6l13.3,4.8l4.7,1.7c1.3,0.5,2.7,0.7,4,0.8c1.3,0.1,2.7-0.1,4-0.4
c3.3-0.8,6.3-2.9,8.2-5.9c0.2-0.3,0.3-0.5,0.5-0.8c0.3-0.6,0.6-1.2,0.9-1.9c0,0,0.5-1.3,1.2-3.4c2.4-6.6,7.6-21,8.1-22.2
c5-0.4,9.4-3.2,11.5-7.7c0.1-0.3,0.3-0.6,0.4-0.9c2.5-7-1.5-14.9-8.9-17.6c-0.6-0.2-1.3-0.4-1.9-0.6c-0.3-0.1-0.6-0.1-1-0.2
c-0.4-0.1-0.8-0.1-1.2-0.1c-0.3,0-0.5,0-0.8,0c-0.5,0-0.9,0-1.4,0c-0.2,0-0.5,0-0.7,0.1c-1,0.1-1.9,0.3-2.9,0.6
c-0.4,0.1-0.7,0.2-1,0.4l0,0l0-0.1c0.2-0.6,0.2-1.3,0-1.8c-0.3-0.8-0.9-1.5-1.7-1.8L629,91c1.1-1.4,3-4.2,3.6-5.9
c0.6-1.8-0.3-3.8-2.1-4.4l-8.3-3l-12.4-4.5c-1.8-0.6-3.8,0.3-4.4,2.1c-0.6,1.8-0.9,5.1-1,6.9l-0.5-0.2c0,0,0,0,0,0l-0.3-0.1
c-1.5-0.5-3.1,0.2-3.6,1.7l0,0l0,0l-1.4,4.2c-13.1-1.5-18.3,3.9-20.8,10.8c0,0.1-9.3,25.7-9.3,25.7c0,0,0,0,0,0
c0,0.1-0.1,0.2-0.1,0.2c0,0.1-0.1,0.3-0.1,0.4c-0.1,0.2-0.1,0.4-0.2,0.6c0,0,0,0,0,0.1C566.5,130.9,568.7,136.8,573.2,140z
M637.4,100.7c0.3,0,0.6,0,0.9,0.1c0.5,0.1,1,0.2,1.4,0.4c2.9,1,4.7,3.7,4.6,6.4c0,0.1,0,0.2,0,0.3c0,0.5-0.1,1.1-0.3,1.6
c-0.6,1.5-1.7,2.7-3.1,3.4c-0.9-3.7-3-7.5-7-11.2C634.9,101,636.1,100.7,637.4,100.7z"/>
<path fill="#FFFFFF" d="M653.7,504.9c0.2-0.7,0.1-1.5-0.3-2.1l-11.2-18.4l0.4-21.5c0-0.7-0.3-1.5-0.8-2l0,0c-0.5-0.5-1.3-0.8-2-0.8
l-21.5,0.5l-18.4-11.2c-0.6-0.4-1.4-0.5-2.1-0.3c-0.7,0.2-1.3,0.7-1.7,1.3l-10.3,18.9L567,479.6c-0.7,0.4-1.1,1-1.3,1.7
c-0.2,0.7-0.1,1.5,0.3,2.1l11.2,18.4l-0.1,5.2h74.6l0.7-0.4C653.1,506.2,653.6,505.6,653.7,504.9z"/>
<path fill="#FFFFFF" d="M642.5,193.9c-0.3-0.7-1-1-1.6-0.7l-0.4,0.2c-2.5-3.5-7.1-5-11.2-3.3c-4.1,1.6-6.4,5.9-5.9,10.2l-15.4,6.2
c-0.1,0-0.2,0.1-0.2,0.1l-22.4,9c-1.6,0.6-2.4,2.5-1.7,4.1l0.6,1.6c-1.6,0.5-3,1.8-4.2,3.7c-4.3,1.1-4.8-3.2-7.6-2.1
c-1.6,0.6-3.2,5.2,0.6,9.5c1.7,1.9,3.6,2.9,5.4,3.3c0.5,1.8,1.5,3.3,2.8,4c-0.4,0.5-0.7,0.9-1.1,1.4c-19.6,15.5-16.3,43.5-5.3,48.9
s30.7-5.5,32-10.6c1.1-4.3-0.1-8-1.8-11.5c3.2,0.5,6.7-0.1,10.3-1.6c8.7-3.5,14.6-9.6,9.8-22c-0.2-0.5-0.4-1-0.6-1.4l3.3-1.3
c1.6-0.6,2.4-2.5,1.7-4.1l-1.7-4.4l24.7-9.9c0.6-0.3,1-1,0.7-1.7L642.5,193.9z M614.4,259.2c-2.9,1.2-5.9,1-8.4-0.8
c0.7,0.2,1.6,0.4,2.5,0.3c4.4-0.1,6.1-3.5,5.6-4.8c-1-2.4-4.1,0.3-5.8-4.5l10.3-4.2c0.2,0.3,0.3,0.6,0.4,1
C621.8,253.3,619,257.3,614.4,259.2z"/>
<path fill="#FFFFFF" d="M196.9,407.8c-0.6-0.2-1.3-0.4-1.9-0.6c-0.3-0.1-0.6-0.1-1-0.2c-0.4-0.1-0.8-0.1-1.2-0.1c-0.3,0-0.5,0-0.8,0
c-0.5,0-0.9,0-1.4,0c-0.2,0-0.5,0-0.7,0.1c-1,0.1-1.9,0.3-2.9,0.6c-0.4,0.1-0.7,0.2-1,0.4l0,0l0-0.1c0.2-0.6,0.2-1.3,0-1.8
c-0.3-0.8-0.9-1.5-1.7-1.8l-0.7-0.3c1.1-1.4,3-4.2,3.6-5.9c0.6-1.8-0.3-3.8-2.1-4.4l-8.3-3l-12.4-4.5c-1.8-0.6-3.8,0.3-4.4,2.1
c-0.6,1.8-0.9,5.1-1,6.9l-0.5-0.2c0,0,0,0,0,0l-0.3-0.1c-1.5-0.5-3.1,0.2-3.6,1.7l0,0l0,0l-1.4,4.2c-13.1-1.5-18.3,3.9-20.8,10.8
c0,0.1-9.3,25.7-9.3,25.7c0,0,0,0,0,0c0,0.1-0.1,0.2-0.1,0.2c0,0.1-0.1,0.3-0.1,0.4c-0.1,0.2-0.1,0.4-0.2,0.6c0,0,0,0,0,0.1
c-1.4,5.6,0.8,11.4,5.3,14.6c0,0,0,0,0,0c0.2,0.1,0.3,0.2,0.5,0.4c0,0,0.1,0,0.1,0.1c0.2,0.1,0.3,0.2,0.5,0.3c0,0,0.1,0.1,0.1,0.1
c0.2,0.1,0.3,0.2,0.5,0.3c0.1,0,0.1,0.1,0.2,0.1c0.2,0.1,0.3,0.2,0.5,0.2c0.1,0,0.1,0.1,0.2,0.1c0.2,0.1,0.4,0.2,0.7,0.3l18,6.6
l13.3,4.8l4.7,1.7c1.3,0.5,2.7,0.7,4,0.8c1.3,0.1,2.7-0.1,4-0.4c3.3-0.8,6.3-2.9,8.2-5.9c0.2-0.3,0.3-0.5,0.5-0.8
c0.3-0.6,0.6-1.2,0.9-1.9c0,0,0.5-1.3,1.2-3.4c2.4-6.6,7.6-21,8.1-22.2c5-0.4,9.4-3.2,11.5-7.7c0.1-0.3,0.3-0.6,0.4-0.9
C208.4,418.4,204.4,410.5,196.9,407.8z M199,420.8c0,0.5-0.1,1.1-0.3,1.6c-0.6,1.5-1.7,2.7-3.1,3.4c-0.9-3.7-3-7.5-7-11.2
c1-0.6,2.3-0.9,3.6-0.9c0.3,0,0.6,0,0.9,0.1c0.5,0.1,1,0.2,1.4,0.4c2.9,1,4.7,3.7,4.6,6.4C199,420.6,199,420.7,199,420.8z"/>
<path fill="#FFFFFF" d="M195.6,506.2l-0.4,0.2c-2.5-3.5-7.1-5-11.2-3.3c-2,0.8-3.5,2.2-4.6,3.9h17.8l0,0
C196.9,506.3,196.2,505.9,195.6,506.2z"/>
<path fill="#FFFFFF" d="M577.6,18.3L577.6,18.3c0.5,0.5,1.3,0.8,2,0.8l21.5-0.5l18.4,11.2c0.6,0.4,1.4,0.5,2.1,0.3
c0.7-0.2,1.3-0.7,1.7-1.3l10.3-18.9L651.7,0h-74.6l-0.3,16.3C576.8,17.1,577.1,17.8,577.6,18.3z"/>
<path fill="#FFFFFF" d="M527.5,183.5l0.4-21.5c0-0.7-0.3-1.5-0.8-2l0,0c-0.5-0.5-1.3-0.8-2-0.8l-21.5,0.5l-18.4-11.2
c-0.6-0.4-1.4-0.5-2.1-0.3c-0.7,0.2-1.3,0.7-1.7,1.3l-10.3,18.9l-18.8,10.3c-0.7,0.4-1.1,1-1.3,1.7c-0.2,0.7-0.1,1.5,0.3,2.1
l11.2,18.4l-0.4,21.5c0,0.7,0.3,1.5,0.8,2l0,0c0.5,0.5,1.3,0.8,2,0.8l21.5-0.5l18.4,11.2c0.6,0.4,1.4,0.5,2.1,0.3
c0.7-0.2,1.3-0.7,1.7-1.3l10.3-18.9l18.8-10.3c0.7-0.4,1.1-1,1.3-1.7c0.2-0.7,0.1-1.5-0.3-2.1L527.5,183.5z"/>
<path fill="#FFFFFF" d="M341.5,30.7C341.5,30.7,341.5,30.7,341.5,30.7c0,0.1-0.1,0.2-0.1,0.3c0,0.1-0.1,0.3-0.1,0.4
c-0.1,0.2-0.1,0.4-0.2,0.6c0,0,0,0,0,0.1c-1.4,5.6,0.8,11.4,5.3,14.6c0,0,0,0,0,0c0.2,0.1,0.3,0.2,0.5,0.4c0,0,0.1,0,0.1,0.1
c0.2,0.1,0.3,0.2,0.5,0.3c0,0,0.1,0,0.1,0.1c0.2,0.1,0.3,0.2,0.5,0.3c0.1,0,0.1,0.1,0.2,0.1c0.2,0.1,0.3,0.2,0.5,0.2
c0.1,0,0.1,0.1,0.2,0.1c0.2,0.1,0.4,0.2,0.7,0.3l18,6.6l13.3,4.8l4.7,1.7c1.3,0.5,2.7,0.7,4,0.8c1.3,0.1,2.7-0.1,4-0.4
c3.3-0.8,6.3-2.9,8.2-5.9c0.2-0.3,0.3-0.5,0.5-0.8c0.3-0.6,0.6-1.2,0.9-1.9c0,0,0.5-1.3,1.2-3.4c2.4-6.6,7.6-21,8.1-22.2
c5-0.4,9.4-3.2,11.5-7.7c0.1-0.3,0.3-0.6,0.4-0.9c2.5-7-1.5-14.9-8.9-17.6c-0.6-0.2-1.3-0.4-1.9-0.6c-0.3-0.1-0.6-0.1-1-0.2
c-0.4-0.1-0.8-0.1-1.2-0.1c-0.3,0-0.5,0-0.8,0c-0.5,0-0.9,0-1.4,0c-0.2,0-0.5,0-0.7,0.1c-1,0.1-1.9,0.3-2.9,0.6
c-0.4,0.1-0.7,0.2-1,0.4l0,0l0-0.1c0.2-0.5,0.2-1,0.1-1.5h-51.2c-1.1,1.5-2,3.2-2.6,5C350.8,5.1,341.5,30.7,341.5,30.7z M410.6,7.3
c0.3,0,0.6,0,0.9,0.1c0.5,0.1,1,0.2,1.4,0.4c2.9,1,4.7,3.7,4.6,6.4c0,0.1,0,0.2,0,0.3c0,0.5-0.1,1.1-0.3,1.6
c-0.6,1.5-1.7,2.7-3.1,3.4c-0.9-3.7-3-7.5-7-11.2C408.1,7.6,409.3,7.2,410.6,7.3z"/>
<path fill="#FFFFFF" d="M480.4,104.2c1.7,1.7,4.4,1.7,6.1,0l3.2-3.2c11.8,4.3,24.2,2.7,33.2-6.3c13.7-13.7,14.3-39.1-1.1-54.4
c-15.3-15.3-40.7-14.7-54.4-1.1c-9,9-10.6,21.4-6.3,33.2l-3.2,3.2c-1.7,1.7-1.7,4.4,0,6.1L480.4,104.2z M500.2,66.2l7.1,0
c1.5,0,2.7,1.2,2.7,2.7c0,1.5-1.2,2.7-2.7,2.7l-7.1,0c-0.8,0-1.4-0.3-1.9-0.8c-0.5-0.5-0.8-1.2-0.8-1.9
C497.5,67.4,498.7,66.2,500.2,66.2z M490.8,55.1c0-1.5,1.2-2.7,2.7-2.7c1.5,0,2.7,1.2,2.7,2.7l0,7.1c0,1.5-1.2,2.7-2.7,2.7
c-0.8,0-1.4-0.3-1.9-0.8c-0.5-0.5-0.8-1.2-0.8-1.9L490.8,55.1z M494.3,77.5c4.6-4.6,12-4.8,16.4-0.3c4.5,4.5,4.3,11.8-0.3,16.4
s-12,4.8-16.4,0.3S489.6,82.1,494.3,77.5z M483.8,86.7c0,0-8.4-8.3-8.3-8.3c0,0,11.3-2.6,11.3-2.6L483.8,86.7z M469.2,52.4
c4.6-4.6,12-4.8,16.4-0.3c4.5,4.5,4.3,11.8-0.3,16.4c-4.6,4.6-12,4.8-16.4,0.3C464.4,64.4,464.5,57,469.2,52.4z"/>
<path fill="#FFFFFF" d="M248.1,433.5c-9,9-10.6,21.4-6.3,33.2l-3.2,3.2c-1.7,1.7-1.7,4.4,0,6.1l22.4,22.4c1.7,1.7,4.4,1.7,6.1,0
l3.2-3.2c11.8,4.3,24.2,2.7,33.2-6.3c13.7-13.7,14.3-39.1-1.1-54.4C287.2,419.3,261.8,419.9,248.1,433.5z M264.5,480.9
c0,0-8.4-8.3-8.3-8.3c0,0,11.3-2.6,11.3-2.6L264.5,480.9z M266,462.8c-4.6,4.6-12,4.8-16.4,0.3c-4.5-4.5-4.3-11.8,0.3-16.4
s12-4.8,16.4-0.3S270.6,458.1,266,462.8z M280.9,460.4l7.1,0c1.5,0,2.7,1.2,2.7,2.7c0,1.5-1.2,2.7-2.7,2.7l-7.1,0
c-0.8,0-1.4-0.3-1.9-0.8c-0.5-0.5-0.8-1.2-0.8-1.9C278.1,461.6,279.4,460.4,280.9,460.4z M271.5,449.3c0-1.5,1.2-2.7,2.7-2.7
c1.5,0,2.7,1.2,2.7,2.7l0,7.1c0,1.5-1.2,2.7-2.7,2.7c-0.8,0-1.4-0.3-1.9-0.8c-0.5-0.5-0.8-1.2-0.8-1.9L271.5,449.3z M291.1,487.9
c-4.6,4.6-12,4.8-16.4,0.3c-4.5-4.5-4.3-11.8,0.3-16.4c4.6-4.6,12-4.8,16.4-0.3C295.8,475.9,295.7,483.2,291.1,487.9z"/>
<path fill="#FFFFFF" d="M415.4,390.9l0.4-21.5c0-0.7-0.3-1.5-0.8-2l0,0c-0.5-0.5-1.3-0.8-2-0.8l-21.5,0.5L373.1,356
c-0.6-0.4-1.4-0.5-2.1-0.3c-0.7,0.2-1.3,0.7-1.7,1.3L359,375.8l-18.8,10.3c-0.7,0.4-1.1,1-1.3,1.7c-0.2,0.7-0.1,1.5,0.3,2.1
l11.2,18.4l-0.4,21.5c0,0.7,0.3,1.5,0.8,2c0,0,0,0,0,0c0.5,0.5,1.3,0.8,2,0.8l21.5-0.5l18.4,11.2c0.6,0.4,1.4,0.5,2.1,0.3
c0.7-0.2,1.3-0.7,1.7-1.3l10.3-18.9l18.8-10.3c0.7-0.4,1.1-1,1.3-1.7c0.2-0.7,0.1-1.5-0.3-2.1L415.4,390.9z"/>
<path fill="#FFFFFF" d="M26.4,340.1c-9,9-10.6,21.4-6.3,33.2l-3.2,3.2c-1.7,1.7-1.7,4.4,0,6.1L39.4,405c1.7,1.7,4.4,1.7,6.1,0
l3.2-3.2c11.8,4.3,24.2,2.7,33.2-6.3c13.7-13.7,14.3-39.1-1.1-54.4C65.5,325.8,40.1,326.4,26.4,340.1z M42.8,387.5
c0,0-8.4-8.3-8.3-8.3c0,0,11.3-2.6,11.3-2.6L42.8,387.5z M44.3,369.3c-4.6,4.6-12,4.8-16.4,0.3c-4.5-4.5-4.3-11.8,0.3-16.4
c4.6-4.6,12-4.8,16.4-0.3C49.1,357.4,48.9,364.7,44.3,369.3z M59.2,367l7.1,0c1.5,0,2.7,1.2,2.7,2.7c0,1.5-1.2,2.7-2.7,2.7l-7.1,0
c-0.8,0-1.4-0.3-1.9-0.8c-0.5-0.5-0.8-1.2-0.8-1.9C56.5,368.2,57.7,367,59.2,367z M49.8,355.9c0-1.5,1.2-2.7,2.7-2.7
c1.5,0,2.7,1.2,2.7,2.7l0,7.1c0,1.5-1.2,2.7-2.7,2.7c-0.8,0-1.4-0.3-1.9-0.8c-0.5-0.5-0.8-1.2-0.8-1.9L49.8,355.9z M69.4,394.5
c-4.6,4.6-12,4.8-16.4,0.3c-4.5-4.5-4.3-11.8,0.3-16.4c4.6-4.6,12-4.8,16.4-0.3S74,389.8,69.4,394.5z"/>
<path fill="#FFFFFF" d="M402.9,504.8l-0.7-0.3c1.1-1.4,3-4.2,3.6-5.9c0.6-1.8-0.3-3.8-2.1-4.4l-8.3-3l-12.4-4.5
c-1.8-0.6-3.8,0.3-4.4,2.1c-0.6,1.8-0.9,5.1-1,6.9l-0.5-0.2c0,0,0,0,0,0l-0.3-0.1c-1.5-0.5-3.1,0.2-3.6,1.7l0,0l0,0l-1.4,4.2
c-9.6-1.1-15,1.6-18.2,5.8h51.2c0-0.1,0-0.2-0.1-0.4C404.4,505.8,403.8,505.1,402.9,504.8z"/>
<path fill="#FFFFFF" d="M98,504.9c0.2-0.7,0.1-1.5-0.3-2.1l-11.2-18.4l0.4-21.5c0-0.7-0.3-1.5-0.8-2l0,0c-0.5-0.5-1.3-0.8-2-0.8
l-21.5,0.5l-18.4-11.2c-0.6-0.4-1.4-0.5-2.1-0.3c-0.7,0.2-1.3,0.7-1.7,1.3l-10.3,18.9l-18.8,10.3c-0.7,0.4-1.1,1-1.3,1.7
c-0.2,0.7-0.1,1.5,0.3,2.1l11.2,18.4l-0.1,5.2h74.6l0.7-0.4C97.3,506.2,97.8,505.6,98,504.9z"/>
<path fill="#FFFFFF" d="M17.5,140C17.5,140,17.5,140,17.5,140c0.2,0.1,0.4,0.3,0.6,0.4c0,0,0.1,0,0.1,0.1c0.2,0.1,0.3,0.2,0.5,0.3
c0,0,0.1,0,0.1,0.1c0.2,0.1,0.3,0.2,0.5,0.3c0.1,0,0.1,0.1,0.2,0.1c0.2,0.1,0.3,0.2,0.5,0.2c0.1,0,0.1,0.1,0.2,0.1
c0.2,0.1,0.4,0.2,0.7,0.3l18,6.6l13.3,4.8l4.7,1.7c1.3,0.5,2.7,0.7,4,0.8c1.3,0.1,2.7-0.1,4-0.4c3.3-0.8,6.3-2.9,8.2-5.9
c0.2-0.3,0.3-0.5,0.5-0.8c0.3-0.6,0.6-1.2,0.9-1.9c0,0,0.5-1.3,1.2-3.4c2.4-6.6,7.6-21,8.1-22.2c5-0.4,9.4-3.2,11.5-7.7
c0.1-0.3,0.3-0.6,0.4-0.9c2.5-7-1.5-14.9-8.9-17.6c-0.6-0.2-1.3-0.4-1.9-0.6c-0.3-0.1-0.6-0.1-1-0.2c-0.4-0.1-0.8-0.1-1.2-0.1
c-0.3,0-0.5,0-0.8,0c-0.5,0-0.9,0-1.4,0c-0.2,0-0.5,0-0.7,0.1c-1,0.1-1.9,0.3-2.9,0.6c-0.4,0.1-0.7,0.2-1,0.4l0,0l0-0.1
c0.2-0.6,0.2-1.3,0-1.8c-0.3-0.8-0.9-1.5-1.7-1.8L73.2,91c1.1-1.4,3-4.2,3.6-5.9c0.6-1.8-0.3-3.8-2.1-4.4l-8.3-3l-12.4-4.5
c-1.8-0.6-3.8,0.3-4.4,2.1c-0.6,1.8-0.9,5.1-1,6.9l-0.5-0.2c0,0,0,0,0,0l-0.3-0.1c-1.5-0.5-3.1,0.2-3.6,1.7l0,0l0,0l-1.4,4.2
c-13.1-1.5-18.3,3.9-20.8,10.8c0,0.1-9.3,25.7-9.3,25.7c0,0,0,0,0,0c0,0.1-0.1,0.2-0.1,0.2c0,0.1-0.1,0.3-0.1,0.4
c-0.1,0.2-0.1,0.4-0.2,0.6c0,0,0,0,0,0.1C10.7,130.9,12.9,136.8,17.5,140z M81.6,100.7c0.3,0,0.6,0,0.9,0.1c0.5,0.1,1,0.2,1.4,0.4
c2.9,1,4.7,3.7,4.6,6.4c0,0.1,0,0.2,0,0.3c0,0.5-0.1,1.1-0.3,1.6c-0.6,1.5-1.7,2.7-3.1,3.4c-0.9-3.7-3-7.5-7-11.2
C79.1,101,80.4,100.7,81.6,100.7z"/>
<path fill="#FFFFFF" d="M527.8,404.7c-0.3-0.7-1-1-1.6-0.7l-0.4,0.2c-2.5-3.5-7.1-5-11.2-3.3c-4.1,1.7-6.4,5.9-5.9,10.2l-15.4,6.2
c-0.1,0-0.2,0.1-0.2,0.1l-22.4,9c-1.6,0.6-2.4,2.5-1.7,4.1l0.6,1.6c-1.6,0.5-3,1.8-4.2,3.7c-4.3,1.1-4.9-3.2-7.6-2.1
c-1.6,0.6-3.2,5.2,0.6,9.5c1.7,1.9,3.6,2.9,5.4,3.3c0.5,1.8,1.5,3.3,2.9,4c-0.4,0.5-0.7,0.9-1.1,1.4c-19.6,15.5-16.3,43.5-5.3,48.9
c10.9,5.4,30.7-5.5,32-10.6c1.1-4.3-0.1-8-1.8-11.5c3.2,0.5,6.7-0.2,10.3-1.6c8.7-3.5,14.6-9.6,9.8-22c-0.2-0.5-0.4-1-0.6-1.4
l3.3-1.3c1.6-0.6,2.4-2.5,1.7-4.1l-1.7-4.4l24.7-9.9c0.6-0.3,1-1,0.7-1.7L527.8,404.7z M499.6,470c-2.9,1.2-5.9,1-8.4-0.8
c0.7,0.2,1.6,0.4,2.5,0.3c4.4-0.1,6.1-3.5,5.6-4.8c-1-2.4-4.1,0.3-5.8-4.5l10.3-4.2c0.2,0.3,0.3,0.6,0.4,0.9
C507.1,464.1,504.3,468.1,499.6,470z"/>
<path fill="#FFFFFF" d="M86.8,193.9c-0.3-0.7-1-1-1.6-0.7l-0.4,0.2c-2.5-3.5-7.1-5-11.2-3.3c-4.1,1.6-6.4,5.9-5.9,10.2l-15.4,6.2
c-0.1,0-0.2,0.1-0.2,0.1l-22.4,9c-1.6,0.6-2.4,2.5-1.7,4.1l0.6,1.6c-1.6,0.5-3,1.8-4.2,3.7c-4.3,1.1-4.9-3.2-7.6-2.1
c-1.6,0.6-3.2,5.2,0.6,9.5c1.7,1.9,3.6,2.9,5.4,3.3c0.5,1.8,1.5,3.3,2.9,4c-0.4,0.5-0.7,0.9-1.1,1.4c-19.6,15.5-16.3,43.5-5.3,48.9
c10.9,5.4,30.7-5.5,32-10.6c1.1-4.3-0.1-8-1.8-11.5c3.2,0.5,6.7-0.1,10.3-1.6c8.7-3.5,14.6-9.6,9.8-22c-0.2-0.5-0.4-1-0.6-1.4
l3.3-1.3c1.6-0.6,2.4-2.5,1.7-4.1l-1.7-4.4l24.7-9.9c0.6-0.3,1-1,0.7-1.7L86.8,193.9z M58.6,259.2c-2.9,1.2-5.9,1-8.4-0.8
c0.7,0.2,1.6,0.4,2.5,0.3c4.4-0.1,6.1-3.5,5.6-4.8c-1-2.4-4.1,0.3-5.8-4.5l10.3-4.2c0.2,0.3,0.3,0.6,0.4,1
C66.1,253.3,63.2,257.3,58.6,259.2z"/>
<path fill="#FFFFFF" d="M21.8,18.3L21.8,18.3c0.5,0.5,1.3,0.8,2,0.8l21.5-0.5l18.4,11.2c0.6,0.4,1.4,0.5,2.1,0.3s1.3-0.7,1.7-1.3
L77.8,9.9L95.9,0H21.3L21,16.3C21,17.1,21.3,17.8,21.8,18.3z"/>
<path fill="#FFFFFF" d="M196.9,290.4l0.4-21.5c0-0.7-0.3-1.5-0.8-2l0,0c-0.5-0.5-1.3-0.8-2-0.8l-21.5,0.5l-18.4-11.2
c-0.6-0.4-1.4-0.5-2.1-0.3c-0.7,0.2-1.3,0.7-1.7,1.3l-10.3,18.9l-18.8,10.3c-0.7,0.4-1.1,1-1.3,1.7c-0.2,0.7-0.1,1.5,0.3,2.1
l11.2,18.4l-0.4,21.5c0,0.7,0.3,1.5,0.8,2l0,0c0.5,0.5,1.3,0.8,2,0.8l21.5-0.5l18.4,11.2c0.6,0.4,1.4,0.5,2.1,0.3
c0.7-0.2,1.3-0.7,1.7-1.3l10.3-18.9l18.8-10.3c0.7-0.4,1.1-1,1.3-1.7c0.2-0.7,0.1-1.5-0.3-2.1L196.9,290.4z"/>
<path fill="#FFFFFF" d="M149.8,206.4c1.7,1.7,4.4,1.7,6.1,0l3.2-3.2c11.8,4.3,24.2,2.7,33.2-6.3c13.7-13.7,14.3-39.1-1.1-54.4
c-15.3-15.3-40.7-14.7-54.4-1.1c-9,9-10.6,21.4-6.3,33.2l-3.2,3.2c-1.7,1.7-1.7,4.4,0,6.1L149.8,206.4z M169.6,168.4l7.1,0
c1.5,0,2.7,1.2,2.7,2.7c0,1.5-1.2,2.7-2.7,2.7l-7.1,0c-0.8,0-1.4-0.3-1.9-0.8c-0.5-0.5-0.8-1.2-0.8-1.9
C166.9,169.6,168.1,168.4,169.6,168.4z M160.2,157.3c0-1.5,1.2-2.7,2.7-2.7c1.5,0,2.7,1.2,2.7,2.7l0,7.1c0,1.5-1.2,2.7-2.7,2.7
c-0.8,0-1.4-0.3-1.9-0.8c-0.5-0.5-0.8-1.2-0.8-1.9L160.2,157.3z M163.7,179.7c4.6-4.6,12-4.8,16.4-0.3c4.5,4.5,4.3,11.8-0.3,16.4
c-4.6,4.6-12,4.8-16.4,0.3S159.1,184.3,163.7,179.7z M153.3,188.9c0,0-8.4-8.3-8.3-8.3c0,0,11.3-2.6,11.3-2.6L153.3,188.9z
M138.6,154.6c4.6-4.6,12-4.8,16.4-0.3s4.3,11.8-0.3,16.4c-4.6,4.6-12,4.8-16.4,0.3C133.8,166.6,134,159.2,138.6,154.6z"/>
</svg>